<?xml version="1.0" encoding="UTF-8" standalone="no"?><!DOCTYPE svg PUBLIC "-//W3C//DTD SVG 1.1//EN" "http://www.w3.org/Graphics/SVG/1.1/DTD/svg11.dtd"><svg width="100%" height="100%" viewBox="0 0 209 209" version="1.1" xmlns="http://www.w3.org/2000/svg" xmlns:xlink="http://www.w3.org/1999/xlink" xml:space="preserve" xmlns:serif="http://www.serif.com/" style="fill-rule:evenodd;clip-rule:evenodd;stroke-linejoin:round;stroke-miterlimit:2;"><path d="M86.804,119.358l-9.546,-19.095c-0.725,-1.592 -1.808,-2.788 -3.258,-3.588c-1.446,-0.8 -2.963,-1.196 -4.554,-1.188l-52.084,0.001l0,-43.405c0,-4.775 1.7,-8.862 5.105,-12.266c3.4,-3.4 7.487,-5.1 12.254,-5.096l138.892,-0c4.775,-0 8.862,1.704 12.262,5.104c3.404,3.404 5.104,7.492 5.096,12.258l-0,43.404l-46.659,0l-14.97,-29.95c-0.725,-1.591 -1.809,-2.712 -3.259,-3.366c-1.446,-0.654 -2.962,-0.979 -4.554,-0.975c-1.592,-0 -3.112,0.329 -4.558,0.983c-1.446,0.654 -2.534,1.775 -3.254,3.359l-26.913,53.82Zm-52.083,54.255c-4.771,-0 -8.863,-1.705 -12.263,-5.105c-3.404,-3.404 -5.104,-7.491 -5.096,-12.258l0,-43.404l46.659,-0l14.971,29.95c0.725,1.592 1.808,2.787 3.258,3.583c1.446,0.8 2.962,1.196 4.554,1.192c1.592,-0 3.113,-0.4 4.559,-1.2c1.445,-0.8 2.533,-1.992 3.254,-3.575l26.912,-53.821l9.546,19.096c0.725,1.592 1.808,2.787 3.258,3.587c1.446,0.8 2.963,1.196 4.555,1.188l52.083,-0l-0,43.404c-0,4.775 -1.7,8.863 -5.104,12.267c-3.4,3.4 -7.488,5.1 -12.255,5.096l-138.891,-0Z" style="fill:#18b066;fill-rule:nonzero;"/></svg>