<?xml version="1.0" standalone="no"?>
<!DOCTYPE svg PUBLIC "-//W3C//DTD SVG 20010904//EN"
 "http://www.w3.org/TR/2001/REC-SVG-20010904/DTD/svg10.dtd">
<svg version="1.0" xmlns="http://www.w3.org/2000/svg"
 width="700.000000pt" height="700.000000pt" viewBox="0 0 700.000000 700.000000"
 preserveAspectRatio="xMidYMid meet">
<metadata>
Created by potrace 1.14, written by Peter Selinger 2001-2017
</metadata>
<g transform="translate(0.000000,700.000000) scale(0.100000,-0.100000)"
fill="#000000" stroke="none">
<path d="M3187 6414 c-1 -1 -81 -4 -177 -8 -96 -4 -191 -8 -210 -10 -19 -2
-73 -7 -120 -10 -47 -4 -98 -9 -115 -11 -16 -3 -52 -7 -80 -10 -27 -3 -93 -12
-145 -21 -52 -8 -111 -17 -130 -20 -19 -3 -38 -8 -41 -10 -3 -2 -21 -6 -40 -9
-203 -36 -495 -145 -672 -252 -353 -213 -611 -580 -728 -1036 -34 -135 -52
-218 -70 -327 -5 -36 -12 -76 -14 -90 -2 -14 -7 -52 -11 -85 -3 -33 -8 -68 -9
-77 -2 -9 -7 -59 -10 -110 -4 -51 -8 -106 -10 -123 -24 -201 -24 -1108 -1
-1400 3 -33 8 -91 11 -130 9 -119 16 -178 25 -235 5 -30 11 -73 15 -95 26
-194 118 -551 148 -582 4 -3 7 -13 7 -21 0 -27 117 -257 172 -338 64 -95 73
-106 179 -221 45 -49 173 -156 242 -201 151 -101 402 -208 602 -258 17 -4 35
-8 40 -10 22 -6 202 -43 235 -48 19 -3 44 -7 55 -10 11 -2 46 -7 79 -11 32 -3
68 -8 80 -10 86 -14 309 -31 546 -41 308 -13 965 -7 1135 10 22 3 79 7 126 10
86 6 97 7 249 26 392 50 751 162 1000 312 167 101 346 274 459 443 65 96 168
295 185 355 4 14 11 34 16 45 13 29 77 244 83 280 3 17 10 50 15 75 15 65 50
275 57 345 4 33 8 70 10 83 2 12 7 64 10 115 4 50 9 108 11 127 22 230 22
1029 0 1360 -6 83 -18 222 -21 244 -2 11 -6 48 -10 81 -15 139 -49 331 -80
455 -105 414 -281 723 -536 941 -35 30 -66 57 -69 60 -3 3 -41 29 -85 58 -152
100 -356 189 -570 250 -75 21 -294 67 -360 76 -22 3 -53 8 -70 10 -16 3 -55 7
-85 11 -30 3 -66 7 -79 9 -13 2 -61 7 -105 10 -45 4 -101 8 -126 11 -133 12
-1001 28 -1013 18z"/>
</g>
</svg>
